<svg width="178" height="36" viewBox="0 0 178 36" fill="none" xmlns="http://www.w3.org/2000/svg">
<path d="M0.642046 35V0.0909081H15.0625C17.6761 0.0909081 19.9318 0.562499 21.8295 1.50568C23.7386 2.4375 25.2102 3.77841 26.2443 5.52841C27.2784 7.26704 27.7955 9.32954 27.7955 11.7159C27.7955 14.1364 27.267 16.1932 26.2102 17.8864C25.1534 19.5682 23.6534 20.8523 21.7102 21.7386C19.767 22.6136 17.4659 23.0511 14.8068 23.0511H5.6875V16.4034H13.2386C14.5114 16.4034 15.5739 16.2386 16.4261 15.9091C17.2898 15.5682 17.9432 15.0568 18.3864 14.375C18.8295 13.6818 19.0511 12.7955 19.0511 11.7159C19.0511 10.6364 18.8295 9.74432 18.3864 9.03977C17.9432 8.32386 17.2898 7.78977 16.4261 7.4375C15.5625 7.07386 14.5 6.89205 13.2386 6.89205H9.07955V35H0.642046ZM20.2955 19.0455L28.9886 35H19.7841L11.2614 19.0455H20.2955ZM44.1463 35.4943C41.4077 35.4943 39.044 34.9545 37.0554 33.875C35.0781 32.7841 33.5554 31.233 32.4872 29.2216C31.4304 27.1989 30.902 24.7955 30.902 22.0114C30.902 19.3068 31.4361 16.9432 32.5043 14.9205C33.5724 12.8864 35.0781 11.3068 37.0213 10.1818C38.9645 9.04545 41.2543 8.47727 43.8906 8.47727C45.7543 8.47727 47.4588 8.76705 49.0043 9.34659C50.5497 9.92614 51.8849 10.7841 53.0099 11.9205C54.1349 13.0568 55.0099 14.4602 55.6349 16.1307C56.2599 17.7898 56.5724 19.6932 56.5724 21.8409V23.9205H33.8168V19.0795H48.8168C48.8054 18.1932 48.5952 17.4034 48.1861 16.7102C47.777 16.017 47.2145 15.4773 46.4986 15.0909C45.794 14.6932 44.9815 14.4943 44.0611 14.4943C43.1293 14.4943 42.294 14.7045 41.5554 15.125C40.8168 15.5341 40.2315 16.0966 39.7997 16.8125C39.3679 17.517 39.1406 18.3182 39.1179 19.2159V24.142C39.1179 25.2102 39.3281 26.1477 39.7486 26.9545C40.169 27.75 40.7656 28.3693 41.5384 28.8125C42.3111 29.2557 43.2315 29.4773 44.2997 29.4773C45.0384 29.4773 45.7088 29.375 46.3111 29.1705C46.9134 28.9659 47.4304 28.6648 47.8622 28.267C48.294 27.8693 48.6179 27.3807 48.8338 26.8011L56.4872 27.0227C56.169 28.7386 55.4702 30.233 54.3906 31.5057C53.3224 32.767 51.919 33.75 50.1804 34.4545C48.4418 35.1477 46.4304 35.4943 44.1463 35.4943ZM69.1648 20.0682V35H60.8295V8.81818H68.7557V13.625H69.0455C69.625 12.0227 70.6136 10.767 72.0114 9.85795C73.4091 8.9375 75.0739 8.47727 77.0057 8.47727C78.8466 8.47727 80.4432 8.89205 81.7955 9.72159C83.1591 10.5398 84.2159 11.6875 84.9659 13.1648C85.7273 14.6307 86.1023 16.3466 86.0909 18.3125V35H77.7557V19.9489C77.767 18.4943 77.3977 17.358 76.6477 16.5398C75.9091 15.7216 74.8807 15.3125 73.5625 15.3125C72.6875 15.3125 71.9148 15.5057 71.2443 15.892C70.5852 16.267 70.0739 16.8068 69.7102 17.5114C69.358 18.2159 69.1761 19.0682 69.1648 20.0682ZM106.03 8.81818V14.9545H89.5128V8.81818H106.03ZM92.973 2.54545H101.308V26.767C101.308 27.2784 101.388 27.6932 101.547 28.0114C101.717 28.3182 101.962 28.5398 102.28 28.6761C102.598 28.8011 102.979 28.8636 103.422 28.8636C103.74 28.8636 104.075 28.8352 104.428 28.7784C104.791 28.7102 105.064 28.6534 105.246 28.608L106.507 34.625C106.109 34.7386 105.547 34.8807 104.82 35.0511C104.104 35.2216 103.246 35.3295 102.246 35.375C100.291 35.4659 98.6151 35.2386 97.2173 34.6932C95.831 34.1364 94.7685 33.2727 94.0298 32.1023C93.3026 30.9318 92.9503 29.4602 92.973 27.6875V2.54545Z" fill="white"/>
<path d="M120.595 35V0.0909081H144.936V6.94318H129.033V14.1023H143.692V20.9716H129.033V28.1477H144.936V35H120.595ZM150.101 35V30.1932L167.061 6.94318H150.118V0.0909081H177.732V4.89773L160.771 28.1477H177.714V35H150.101Z" fill="#4CAF50"/>
</svg>
